<?xml version="1.0" encoding="utf-8"?>
<!-- Generator: Adobe Illustrator 23.1.0, SVG Export Plug-In . SVG Version: 6.00 Build 0)  -->
<svg version="1.1" id="Capa_1" xmlns="http://www.w3.org/2000/svg" xmlns:xlink="http://www.w3.org/1999/xlink" x="0px" y="0px"
	 viewBox="0 0 548.3 548.3" style="enable-background:new 0 0 548.3 548.3;" xml:space="preserve">
<style type="text/css">
	.st0{fill:#20A8D8;}
</style>
<g>
	<path class="st0" d="M486.2,196.1H473v-63.5c0-0.4-0.1-0.8-0.1-1.2c0-2.5-0.8-5-2.6-7L364.7,3.7c0,0-0.1,0-0.1-0.1
		c-0.6-0.7-1.4-1.3-2.1-1.8c-0.2-0.2-0.5-0.3-0.7-0.4c-0.7-0.4-1.4-0.7-2.1-0.9c-0.2-0.1-0.4-0.1-0.6-0.2c-0.8-0.2-1.6-0.3-2.5-0.3
		H96.8C84.9,0,75.3,9.6,75.3,21.5v174.6H62.1c-17,0-30.7,13.8-30.7,30.7v159.8c0,17,13.8,30.7,30.7,30.7h13.2v109.4
		c0,11.9,9.6,21.5,21.5,21.5h354.8c11.9,0,21.5-9.6,21.5-21.5V417.4h13.2c17,0,30.7-13.8,30.7-30.7V226.9
		C516.9,209.9,503.2,196.1,486.2,196.1z M96.8,21.5h249.1v110c0,5.9,4.8,10.8,10.8,10.8h95v53.9H96.8V21.5z M258.6,313.2
		c-26.7-9.3-44.1-24.1-44.1-47.4c0-27.4,22.9-48.4,60.7-48.4c18.1,0,31.4,3.8,41,8.1l-8.1,29.3c-6.4-3.1-17.9-7.6-33.6-7.6
		c-15.7,0-23.3,7.1-23.3,15.5c0,10.2,9,14.8,29.8,22.6c28.3,10.5,41.7,25.2,41.7,47.9c0,26.9-20.7,49.8-64.8,49.8
		c-18.3,0-36.4-4.8-45.5-9.8l7.4-30c9.8,5,24.8,10,40.3,10c16.7,0,25.5-6.9,25.5-17.4C285.5,325.8,277.9,320.1,258.6,313.2z
		 M69.5,302.7c0-54.8,39.1-85.3,87.7-85.3c18.8,0,33.1,3.8,39.5,7.1l-7.4,28.8c-7.4-3.1-17.6-5.9-30.5-5.9
		c-28.8,0-51.2,17.4-51.2,53.1c0,32.2,19.1,52.4,51.5,52.4c10.9,0,23.1-2.4,30.2-5.2l5.5,28.3c-6.7,3.3-21.7,6.9-41.2,6.9
		C98.1,383,69.5,348.4,69.5,302.7z M451.5,521H96.8V417.4h354.8V521z M427.5,380.6h-42.4L333.7,220h39.8l19.5,67.9
		c5.5,19,10.5,37.4,14.3,57.4h0.7c4-19.3,9-38.4,14.5-56.7L443,220h38.6L427.5,380.6z"/>
</g>
</svg>
